# xmcd
#
# Track frame offsets: 
#        150
#        18813
#        44013
#        63213
#        101388
#        133638
#
# Disc length: 2095 seconds
#
# Revision: 0
# Processed by: cddbd v1.5.2PL0 Copyright (c) Steve Scherf et al.
# Submitted via: ExactAudioCopy v0.99pb4
#
DISCID=45082d06
DTITLE=Zero 7 - Distractions Remixes (Promo Release CDR)
DYEAR=2002
DGENRE=Trip-Hop
TTITLE0=Distractions (Radio Edit)
TTITLE1=Distractions (Bugz in the Attic Remix)
TTITLE2=Distractions (DJ Spinna Remix)
TTITLE3=Distractions (Block 16 Remix)
TTITLE4=Distractions (Version Idjut)
TTITLE5=Distractions (Madlib's YNQ Remix)
EXTD=
EXTT0=
EXTT1=
EXTT2=
EXTT3=
EXTT4=
EXTT5=
PLAYORDER=
